<mxfile host="Electron" agent="Mozilla/5.0 (Macintosh; Intel Mac OS X 10_15_7) AppleWebKit/537.36 (KHTML, like Gecko) draw.io/26.0.16 Chrome/132.0.6834.196 Electron/34.2.0 Safari/537.36" version="26.0.16">
  <diagram name="第 1 页" id="7dqLj7kYb6L5a32sJTY7">
    <mxGraphModel dx="1032" dy="769" grid="1" gridSize="10" guides="1" tooltips="1" connect="1" arrows="1" fold="1" page="1" pageScale="1" pageWidth="827" pageHeight="1169" math="0" shadow="0">
      <root>
        <mxCell id="0" />
        <mxCell id="1" parent="0" />
        <mxCell id="8Fs0rpjw77nQWcJVhjVn-1" value="" style="rounded=0;whiteSpace=wrap;html=1;" vertex="1" parent="1">
          <mxGeometry x="160" y="170" width="80" height="30" as="geometry" />
        </mxCell>
        <mxCell id="8Fs0rpjw77nQWcJVhjVn-2" value="哈希表" style="text;html=1;align=center;verticalAlign=middle;whiteSpace=wrap;rounded=0;" vertex="1" parent="1">
          <mxGeometry x="170" y="110" width="60" height="30" as="geometry" />
        </mxCell>
        <mxCell id="8Fs0rpjw77nQWcJVhjVn-3" value="" style="rounded=0;whiteSpace=wrap;html=1;" vertex="1" parent="1">
          <mxGeometry x="160" y="200" width="80" height="30" as="geometry" />
        </mxCell>
        <mxCell id="8Fs0rpjw77nQWcJVhjVn-4" value="0" style="text;html=1;align=center;verticalAlign=middle;whiteSpace=wrap;rounded=0;" vertex="1" parent="1">
          <mxGeometry x="110" y="170" width="60" height="30" as="geometry" />
        </mxCell>
        <mxCell id="8Fs0rpjw77nQWcJVhjVn-7" value="1" style="text;html=1;align=center;verticalAlign=middle;whiteSpace=wrap;rounded=0;" vertex="1" parent="1">
          <mxGeometry x="110" y="200" width="60" height="30" as="geometry" />
        </mxCell>
        <mxCell id="8Fs0rpjw77nQWcJVhjVn-35" style="edgeStyle=orthogonalEdgeStyle;rounded=0;orthogonalLoop=1;jettySize=auto;html=1;exitX=1;exitY=0.5;exitDx=0;exitDy=0;entryX=0;entryY=0.5;entryDx=0;entryDy=0;" edge="1" parent="1" source="8Fs0rpjw77nQWcJVhjVn-8" target="8Fs0rpjw77nQWcJVhjVn-23">
          <mxGeometry relative="1" as="geometry" />
        </mxCell>
        <mxCell id="8Fs0rpjw77nQWcJVhjVn-8" value="" style="rounded=0;whiteSpace=wrap;html=1;" vertex="1" parent="1">
          <mxGeometry x="160" y="230" width="80" height="30" as="geometry" />
        </mxCell>
        <mxCell id="8Fs0rpjw77nQWcJVhjVn-34" style="edgeStyle=orthogonalEdgeStyle;rounded=0;orthogonalLoop=1;jettySize=auto;html=1;exitX=1;exitY=0.5;exitDx=0;exitDy=0;entryX=0;entryY=0.5;entryDx=0;entryDy=0;" edge="1" parent="1" source="8Fs0rpjw77nQWcJVhjVn-9" target="8Fs0rpjw77nQWcJVhjVn-20">
          <mxGeometry relative="1" as="geometry" />
        </mxCell>
        <mxCell id="8Fs0rpjw77nQWcJVhjVn-9" value="" style="rounded=0;whiteSpace=wrap;html=1;" vertex="1" parent="1">
          <mxGeometry x="160" y="260" width="80" height="30" as="geometry" />
        </mxCell>
        <mxCell id="8Fs0rpjw77nQWcJVhjVn-10" value="2" style="text;html=1;align=center;verticalAlign=middle;whiteSpace=wrap;rounded=0;" vertex="1" parent="1">
          <mxGeometry x="110" y="230" width="60" height="30" as="geometry" />
        </mxCell>
        <mxCell id="8Fs0rpjw77nQWcJVhjVn-11" value="3" style="text;html=1;align=center;verticalAlign=middle;whiteSpace=wrap;rounded=0;" vertex="1" parent="1">
          <mxGeometry x="110" y="260" width="60" height="30" as="geometry" />
        </mxCell>
        <mxCell id="8Fs0rpjw77nQWcJVhjVn-12" value="" style="rounded=0;whiteSpace=wrap;html=1;" vertex="1" parent="1">
          <mxGeometry x="160" y="290" width="80" height="30" as="geometry" />
        </mxCell>
        <mxCell id="8Fs0rpjw77nQWcJVhjVn-32" style="edgeStyle=orthogonalEdgeStyle;rounded=0;orthogonalLoop=1;jettySize=auto;html=1;exitX=1;exitY=0.5;exitDx=0;exitDy=0;entryX=0;entryY=0.5;entryDx=0;entryDy=0;" edge="1" parent="1" source="8Fs0rpjw77nQWcJVhjVn-13" target="8Fs0rpjw77nQWcJVhjVn-30">
          <mxGeometry relative="1" as="geometry" />
        </mxCell>
        <mxCell id="8Fs0rpjw77nQWcJVhjVn-13" value="" style="rounded=0;whiteSpace=wrap;html=1;" vertex="1" parent="1">
          <mxGeometry x="160" y="320" width="80" height="30" as="geometry" />
        </mxCell>
        <mxCell id="8Fs0rpjw77nQWcJVhjVn-14" value="4" style="text;html=1;align=center;verticalAlign=middle;whiteSpace=wrap;rounded=0;" vertex="1" parent="1">
          <mxGeometry x="110" y="290" width="60" height="30" as="geometry" />
        </mxCell>
        <mxCell id="8Fs0rpjw77nQWcJVhjVn-15" value="5" style="text;html=1;align=center;verticalAlign=middle;whiteSpace=wrap;rounded=0;" vertex="1" parent="1">
          <mxGeometry x="110" y="320" width="60" height="30" as="geometry" />
        </mxCell>
        <mxCell id="8Fs0rpjw77nQWcJVhjVn-33" style="edgeStyle=orthogonalEdgeStyle;rounded=0;orthogonalLoop=1;jettySize=auto;html=1;exitX=1;exitY=0.5;exitDx=0;exitDy=0;entryX=0;entryY=0.5;entryDx=0;entryDy=0;" edge="1" parent="1" source="8Fs0rpjw77nQWcJVhjVn-16" target="8Fs0rpjw77nQWcJVhjVn-28">
          <mxGeometry relative="1" as="geometry" />
        </mxCell>
        <mxCell id="8Fs0rpjw77nQWcJVhjVn-16" value="" style="rounded=0;whiteSpace=wrap;html=1;" vertex="1" parent="1">
          <mxGeometry x="160" y="350" width="80" height="30" as="geometry" />
        </mxCell>
        <mxCell id="8Fs0rpjw77nQWcJVhjVn-17" value="6" style="text;html=1;align=center;verticalAlign=middle;whiteSpace=wrap;rounded=0;" vertex="1" parent="1">
          <mxGeometry x="110" y="350" width="60" height="30" as="geometry" />
        </mxCell>
        <mxCell id="8Fs0rpjw77nQWcJVhjVn-18" value="数字" style="text;html=1;align=center;verticalAlign=middle;whiteSpace=wrap;rounded=0;" vertex="1" parent="1">
          <mxGeometry x="160" y="30" width="60" height="30" as="geometry" />
        </mxCell>
        <mxCell id="8Fs0rpjw77nQWcJVhjVn-19" value="17&amp;nbsp; 23&amp;nbsp; 31&amp;nbsp; 20&amp;nbsp; 19&amp;nbsp; &amp;nbsp;27" style="text;html=1;align=center;verticalAlign=middle;whiteSpace=wrap;rounded=0;" vertex="1" parent="1">
          <mxGeometry x="270" y="30" width="210" height="30" as="geometry" />
        </mxCell>
        <mxCell id="8Fs0rpjw77nQWcJVhjVn-20" value="17" style="rounded=0;whiteSpace=wrap;html=1;" vertex="1" parent="1">
          <mxGeometry x="280" y="262.5" width="36" height="25" as="geometry" />
        </mxCell>
        <mxCell id="8Fs0rpjw77nQWcJVhjVn-27" style="edgeStyle=orthogonalEdgeStyle;rounded=0;orthogonalLoop=1;jettySize=auto;html=1;exitX=1;exitY=0.5;exitDx=0;exitDy=0;entryX=0;entryY=0.5;entryDx=0;entryDy=0;" edge="1" parent="1" source="8Fs0rpjw77nQWcJVhjVn-21" target="8Fs0rpjw77nQWcJVhjVn-25">
          <mxGeometry relative="1" as="geometry" />
        </mxCell>
        <mxCell id="8Fs0rpjw77nQWcJVhjVn-21" value="" style="rounded=0;whiteSpace=wrap;html=1;" vertex="1" parent="1">
          <mxGeometry x="316" y="262.5" width="36" height="25" as="geometry" />
        </mxCell>
        <mxCell id="8Fs0rpjw77nQWcJVhjVn-23" value="23" style="rounded=0;whiteSpace=wrap;html=1;" vertex="1" parent="1">
          <mxGeometry x="280" y="232.5" width="36" height="25" as="geometry" />
        </mxCell>
        <mxCell id="8Fs0rpjw77nQWcJVhjVn-24" value="^" style="rounded=0;whiteSpace=wrap;html=1;" vertex="1" parent="1">
          <mxGeometry x="316" y="232.5" width="36" height="25" as="geometry" />
        </mxCell>
        <mxCell id="8Fs0rpjw77nQWcJVhjVn-25" value="31" style="rounded=0;whiteSpace=wrap;html=1;" vertex="1" parent="1">
          <mxGeometry x="414" y="262.5" width="36" height="25" as="geometry" />
        </mxCell>
        <mxCell id="8Fs0rpjw77nQWcJVhjVn-26" value="^" style="rounded=0;whiteSpace=wrap;html=1;" vertex="1" parent="1">
          <mxGeometry x="450" y="262.5" width="36" height="25" as="geometry" />
        </mxCell>
        <mxCell id="8Fs0rpjw77nQWcJVhjVn-28" value="20" style="rounded=0;whiteSpace=wrap;html=1;" vertex="1" parent="1">
          <mxGeometry x="280" y="352.5" width="36" height="25" as="geometry" />
        </mxCell>
        <mxCell id="8Fs0rpjw77nQWcJVhjVn-38" style="edgeStyle=orthogonalEdgeStyle;rounded=0;orthogonalLoop=1;jettySize=auto;html=1;exitX=1;exitY=0.5;exitDx=0;exitDy=0;entryX=0;entryY=0.5;entryDx=0;entryDy=0;" edge="1" parent="1" source="8Fs0rpjw77nQWcJVhjVn-29" target="8Fs0rpjw77nQWcJVhjVn-36">
          <mxGeometry relative="1" as="geometry" />
        </mxCell>
        <mxCell id="8Fs0rpjw77nQWcJVhjVn-29" value="" style="rounded=0;whiteSpace=wrap;html=1;" vertex="1" parent="1">
          <mxGeometry x="316" y="352.5" width="36" height="25" as="geometry" />
        </mxCell>
        <mxCell id="8Fs0rpjw77nQWcJVhjVn-30" value="19" style="rounded=0;whiteSpace=wrap;html=1;" vertex="1" parent="1">
          <mxGeometry x="280" y="322.5" width="36" height="25" as="geometry" />
        </mxCell>
        <mxCell id="8Fs0rpjw77nQWcJVhjVn-31" value="^" style="rounded=0;whiteSpace=wrap;html=1;" vertex="1" parent="1">
          <mxGeometry x="316" y="322.5" width="36" height="25" as="geometry" />
        </mxCell>
        <mxCell id="8Fs0rpjw77nQWcJVhjVn-36" value="27" style="rounded=0;whiteSpace=wrap;html=1;" vertex="1" parent="1">
          <mxGeometry x="414" y="352.5" width="36" height="25" as="geometry" />
        </mxCell>
        <mxCell id="8Fs0rpjw77nQWcJVhjVn-37" value="^" style="rounded=0;whiteSpace=wrap;html=1;" vertex="1" parent="1">
          <mxGeometry x="450" y="352.5" width="36" height="25" as="geometry" />
        </mxCell>
      </root>
    </mxGraphModel>
  </diagram>
</mxfile>
